<?xml version="1.0" encoding="UTF-8"?>
<!-- Generator: visioncortex VTracer 0.6.4 -->
<svg version="1.1" xmlns="http://www.w3.org/2000/svg" width="4542" height="1080">
<path d="M0 0 C3.77 0.01 7.53 -0 11.3 -0.01 C17.88 -0.03 24.46 -0.03 31.05 -0.02 C40.84 -0 50.63 -0.01 60.42 -0.02 C77.91 -0.04 95.4 -0.04 112.89 -0.03 C128.2 -0.02 143.5 -0.02 158.81 -0.02 C160.33 -0.02 160.33 -0.02 161.89 -0.02 C166.02 -0.02 170.14 -0.02 174.27 -0.03 C212.96 -0.04 251.64 -0.03 290.33 -0.01 C324.68 0.01 359.03 0.01 393.37 -0.01 C431.99 -0.03 470.61 -0.04 509.23 -0.03 C513.34 -0.02 517.46 -0.02 521.58 -0.02 C523.1 -0.02 523.1 -0.02 524.66 -0.02 C539.95 -0.02 555.24 -0.02 570.54 -0.03 C587.93 -0.04 605.33 -0.04 622.72 -0.02 C632.45 -0.01 642.18 -0.01 651.91 -0.02 C658.41 -0.03 664.92 -0.02 671.43 -0.01 C675.13 0 678.83 0.01 682.53 -0.01 C719.58 -0.14 719.58 -0.14 734.7 8.33 C735.35 8.67 736 9.02 736.68 9.38 C757.68 20.8 771.84 37.86 779.2 60.51 C783.18 74.72 782.62 89.29 782.58 103.91 C782.57 107.65 782.58 111.39 782.59 115.13 C782.6 121.68 782.6 128.22 782.59 134.77 C782.58 144.5 782.59 154.23 782.6 163.96 C782.61 181.35 782.61 198.73 782.6 216.11 C782.6 231.33 782.59 246.54 782.6 261.75 C782.6 263.27 782.6 263.27 782.6 264.81 C782.6 268.91 782.6 273.01 782.6 277.11 C782.61 315.56 782.6 354.01 782.59 392.45 C782.57 426.59 782.57 460.73 782.59 494.87 C782.6 533.24 782.61 571.62 782.6 610 C782.6 614.09 782.6 618.18 782.6 622.27 C782.6 623.79 782.6 623.79 782.6 625.33 C782.59 640.53 782.6 655.73 782.6 670.93 C782.61 688.22 782.61 705.51 782.59 722.8 C782.59 732.47 782.59 742.14 782.6 751.81 C782.6 758.28 782.6 764.74 782.59 771.21 C782.58 774.89 782.58 778.57 782.59 782.25 C782.67 812.55 778.89 838.27 756.85 860.92 C740.5 876.4 720.7 883.85 698.42 883.77 C697.16 883.77 695.9 883.78 694.6 883.78 C691.12 883.79 687.63 883.79 684.15 883.78 C680.35 883.78 676.55 883.79 672.76 883.8 C666.11 883.81 659.46 883.81 652.81 883.81 C642.92 883.8 633.03 883.81 623.14 883.82 C604.44 883.84 585.75 883.85 567.06 883.85 C552.62 883.85 538.19 883.85 523.75 883.86 C519.59 883.86 515.44 883.86 511.28 883.86 C510.25 883.87 509.22 883.87 508.15 883.87 C479.09 883.88 450.03 883.89 420.97 883.89 C419.33 883.89 419.33 883.89 417.65 883.89 C412.1 883.89 406.54 883.88 400.99 883.88 C399.89 883.88 398.78 883.88 397.65 883.88 C395.42 883.88 393.19 883.88 390.96 883.88 C356.26 883.88 321.57 883.9 286.87 883.93 C247.89 883.96 208.9 883.97 169.92 883.97 C165.76 883.97 161.6 883.97 157.44 883.97 C156.42 883.97 155.4 883.97 154.34 883.97 C137.87 883.97 121.41 883.98 104.94 884 C88.39 884.02 71.83 884.02 55.28 884.01 C45.45 884 35.62 884 25.79 884.02 C19.21 884.03 12.64 884.03 6.07 884.02 C2.33 884.01 -1.41 884.01 -5.15 884.02 C-39.53 884.16 -39.53 884.16 -54.99 875.89 C-55.97 875.38 -55.97 875.38 -56.97 874.86 C-77.75 863.66 -91.73 845.92 -98.8 823.51 C-102.72 809.29 -102.23 794.79 -102.19 780.16 C-102.18 776.42 -102.19 772.69 -102.2 768.95 C-102.21 762.42 -102.21 755.88 -102.2 749.35 C-102.19 739.64 -102.2 729.92 -102.21 720.2 C-102.22 702.85 -102.22 685.49 -102.21 668.13 C-102.2 652.94 -102.2 637.75 -102.21 622.56 C-102.21 621.56 -102.21 620.55 -102.21 619.51 C-102.21 615.42 -102.21 611.32 -102.21 607.23 C-102.22 568.84 -102.21 530.45 -102.19 492.06 C-102.18 457.98 -102.18 423.89 -102.2 389.81 C-102.21 351.49 -102.22 313.17 -102.21 274.86 C-102.21 270.77 -102.21 266.68 -102.21 262.6 C-102.21 261.59 -102.21 260.58 -102.21 259.55 C-102.2 244.37 -102.21 229.19 -102.21 214.02 C-102.22 196.75 -102.22 179.49 -102.2 162.23 C-102.19 152.57 -102.19 142.92 -102.21 133.26 C-102.21 126.81 -102.21 120.35 -102.19 113.89 C-102.19 110.22 -102.19 106.55 -102.2 102.87 C-102.28 72.06 -98.88 47.62 -76.8 24.51 C-76.25 23.89 -75.7 23.26 -75.13 22.62 C-55.58 1.22 -26.8 -0.1 0 0 Z " fill="#00C0FF" transform="translate(416.8044234216213,122.48612978309393)"/>
<path d="M0 0 C13.44 10.4 20.46 23.32 23.88 39.81 C25.6 63.1 16.65 81.99 7.41 102.76 C6.16 105.56 4.92 108.36 3.68 111.17 C0.04 119.42 -3.62 127.67 -7.38 135.88 C-8.8 139 -10.22 142.12 -11.63 145.25 C-12.29 146.69 -12.95 148.14 -13.62 149.58 C-14.55 151.58 -15.46 153.58 -16.36 155.58 C-16.87 156.69 -17.38 157.81 -17.91 158.95 C-19.77 165.18 -17.72 170.12 -15.09 175.82 C-14.81 176.45 -14.52 177.07 -14.23 177.72 C-13.29 179.77 -12.33 181.82 -11.38 183.88 C-10.7 185.34 -10.03 186.8 -9.35 188.27 C-3.73 200.47 2.03 212.6 7.79 224.74 C12.81 235.35 17.71 246.01 22.54 256.71 C27.92 268.64 33.48 280.48 39.1 292.31 C44.58 303.87 49.96 315.48 55.12 327.19 C58.24 323.49 60.06 319.35 62.05 314.99 C62.42 314.17 62.8 313.36 63.19 312.52 C64.42 309.85 65.65 307.17 66.88 304.5 C67.74 302.63 68.6 300.76 69.46 298.89 C75.18 286.48 80.85 274.04 86.49 261.59 C91.32 250.93 96.21 240.31 101.12 229.69 C106.67 217.71 112.18 205.71 117.62 193.69 C123.45 180.83 129.35 168 135.28 155.19 C140.44 144.04 145.56 132.88 150.62 121.69 C156.45 108.84 162.34 96.02 168.27 83.21 C172.32 74.47 176.35 65.72 180.32 56.94 C180.82 55.83 180.82 55.83 181.34 54.7 C182.9 51.25 184.45 47.8 186 44.34 C188.99 37.71 192.07 31.14 195.29 24.62 C195.6 23.96 195.92 23.31 196.25 22.63 C203.78 7.54 217.31 -4.03 233.12 -9.81 C251.14 -15.45 269.1 -12.72 285.75 -4.19 C296.94 1.87 305.08 9.97 311.12 21.19 C311.83 22.48 311.83 22.48 312.55 23.8 C319.55 37.78 321.83 55.52 317.38 70.63 C315.84 75 313.98 79.17 312.05 83.38 C311.65 84.26 311.26 85.14 310.85 86.04 C306.69 95.17 302.48 104.28 298.25 113.38 C297.43 115.15 296.6 116.93 295.78 118.71 C294.07 122.38 292.37 126.05 290.66 129.72 C287.04 137.53 283.42 145.34 279.8 153.15 C277.83 157.41 275.85 161.67 273.88 165.94 C273.08 167.65 272.29 169.35 271.5 171.06 C247.75 222.31 247.75 222.31 246.56 224.87 C245.77 226.58 244.98 228.29 244.19 230 C242.21 234.26 240.24 238.53 238.26 242.79 C234.65 250.58 231.04 258.37 227.43 266.16 C225.39 270.56 223.35 274.97 221.31 279.38 C220.91 280.24 220.51 281.1 220.1 281.99 C215.11 292.77 210.1 303.55 205.06 314.31 C199.05 327.18 193.09 340.07 187.15 352.97 C179.7 369.12 172.22 385.26 164.74 401.4 C161.89 407.54 159.04 413.69 156.2 419.83 C148.51 436.43 140.82 453.03 133.06 469.6 C130.23 475.66 127.41 481.72 124.62 487.8 C123.75 489.68 122.89 491.56 122.02 493.44 C121.23 495.17 120.44 496.89 119.65 498.62 C114.45 509.89 109.12 520.64 101.12 530.19 C100.36 531.22 99.6 532.25 98.81 533.31 C89.83 542.93 77.99 547.92 64.91 548.39 C42.46 548.77 23.96 543.5 6.92 528.21 C-5.81 515.22 -11.82 495.5 -18.9 479.07 C-22.39 470.97 -25.94 462.9 -29.49 454.83 C-31.41 450.47 -33.32 446.11 -35.24 441.75 C-35.62 440.87 -36.01 440 -36.4 439.1 C-39.06 433.06 -41.71 427.01 -44.36 420.97 C-52.48 402.44 -60.63 383.92 -68.82 365.42 C-72.95 356.09 -77.07 346.75 -81.15 337.4 C-81.48 336.64 -81.81 335.88 -82.15 335.1 C-83.7 331.56 -85.24 328.01 -86.78 324.46 C-87.31 323.23 -87.85 322 -88.38 320.77 C-88.84 319.71 -89.3 318.65 -89.78 317.56 C-90.67 315.28 -90.67 315.28 -91.88 314.19 C-101.33 334.97 -110.74 355.77 -119.88 376.69 C-126.32 391.45 -132.9 406.15 -139.57 420.81 C-145.13 433.06 -150.61 445.34 -155.99 457.66 C-161.65 470.6 -167.31 483.55 -173.11 496.44 C-173.73 497.82 -174.35 499.21 -174.97 500.6 C-183.77 520.43 -194.72 535.59 -215.38 544 C-233.8 550.59 -252.34 549.55 -270.08 541.6 C-288.21 532.92 -297.73 518.52 -305.88 500.62 C-306.53 499.21 -307.18 497.8 -307.83 496.39 C-309.86 492 -311.87 487.59 -313.88 483.19 C-314.19 482.49 -314.51 481.79 -314.84 481.07 C-317.65 474.9 -320.45 468.73 -323.25 462.55 C-327.55 453.06 -331.93 443.61 -336.38 434.19 C-341.78 422.71 -347.08 411.18 -352.31 399.61 C-357.22 388.76 -362.24 377.97 -367.31 367.2 C-372.07 357.11 -376.72 346.98 -381.31 336.81 C-386.4 325.56 -391.59 314.35 -396.88 303.19 C-402.48 291.34 -407.97 279.44 -413.37 267.5 C-417.96 257.36 -422.63 247.26 -427.38 237.19 C-432.78 225.71 -438.08 214.18 -443.31 202.61 C-448.22 191.76 -453.24 180.97 -458.31 170.2 C-463.38 159.43 -468.34 148.61 -473.24 137.77 C-476.82 129.84 -480.44 121.94 -484.16 114.08 C-484.52 113.32 -484.88 112.56 -485.25 111.78 C-486.97 108.16 -488.69 104.54 -490.42 100.92 C-501.06 78.6 -508.79 57.69 -500.56 33.06 C-494.18 15.5 -482.27 1.51 -465.38 -6.69 C-447.18 -14.17 -428.56 -13.76 -410.41 -6.41 C-395.49 0.84 -385.38 13.89 -378.14 28.49 C-377.8 29.19 -377.45 29.89 -377.09 30.61 C-373.34 38.21 -369.81 45.91 -366.31 53.62 C-365.62 55.15 -364.92 56.68 -364.23 58.21 C-362.45 62.11 -360.68 66.02 -358.9 69.92 C-357.29 73.47 -355.68 77.02 -354.07 80.57 C-352.22 84.64 -350.37 88.7 -348.52 92.77 C-342 107.12 -335.45 121.45 -328.89 135.78 C-325.22 143.81 -321.55 151.84 -317.88 159.87 C-316.88 162.06 -315.88 164.24 -314.88 166.43 C-314.38 167.51 -314.38 167.51 -313.88 168.62 C-311.87 173.01 -309.86 177.41 -307.85 181.8 C-300.7 197.44 -293.56 213.08 -286.45 228.73 C-281.62 239.35 -276.79 249.96 -271.94 260.56 C-271.44 261.64 -271.44 261.64 -270.94 262.74 C-267.51 270.24 -264.08 277.75 -260.64 285.24 C-259.21 288.37 -257.78 291.5 -256.34 294.62 C-255.67 296.09 -255 297.56 -254.33 299.03 C-249.73 309.03 -245.26 319.09 -240.88 329.19 C-238.12 325.85 -236.37 322.22 -234.61 318.3 C-234.3 317.62 -233.99 316.94 -233.67 316.24 C-232.65 313.99 -231.64 311.75 -230.62 309.5 C-229.91 307.92 -229.19 306.34 -228.47 304.75 C-226.99 301.49 -225.51 298.23 -224.04 294.97 C-222.05 290.56 -220.05 286.16 -218.05 281.76 C-217.74 281.09 -217.44 280.42 -217.12 279.73 C-216.51 278.39 -215.9 277.04 -215.29 275.7 C-214.37 273.67 -213.44 271.64 -212.52 269.61 C-207.65 258.89 -202.76 248.18 -197.86 237.48 C-193.02 226.89 -188.19 216.29 -183.38 205.69 C-177.89 193.61 -172.38 181.54 -166.86 169.48 C-162.02 158.89 -157.19 148.29 -152.38 137.69 C-147.23 126.35 -142.06 115.01 -136.88 103.69 C-131.99 93 -127.1 82.31 -122.24 71.61 C-121.32 69.58 -120.39 67.54 -119.46 65.51 C-116.58 59.17 -113.7 52.82 -110.89 46.45 C-109.56 43.45 -108.23 40.46 -106.9 37.47 C-106.27 36.06 -105.65 34.65 -105.03 33.23 C-95.65 11.72 -82.31 -1.83 -60.51 -10.79 C-40.51 -17.48 -16.87 -11.71 0 0 Z " fill="#00ADFF" transform="translate(1826.875,346.8125)"/>
<path d="M0 0 C7.27 6.55 14.06 13.61 20.89 20.61 C24.34 24.13 27.8 27.64 31.26 31.14 C33.09 33 34.92 34.86 36.74 36.73 C38 38.01 38 38.01 39.27 39.31 C40 40.05 40.72 40.79 41.46 41.55 C43.47 43.49 45.5 45.3 47.61 47.11 C52.98 51.78 57.96 56.83 62.97 61.87 C64.05 62.96 65.13 64.04 66.22 65.12 C68.53 67.44 70.85 69.76 73.16 72.08 C76.82 75.76 80.49 79.43 84.16 83.1 C92.6 91.56 101.04 100.02 109.48 108.49 C117.22 116.25 124.96 124.01 132.71 131.76 C136.35 135.41 139.99 139.05 143.62 142.7 C145.89 144.98 148.16 147.25 150.43 149.53 C151.48 150.57 152.52 151.62 153.57 152.67 C158.65 157.79 163.76 162.82 169.27 167.5 C172.52 170.32 175.53 173.41 178.56 176.46 C179.58 177.48 179.58 177.48 180.61 178.52 C182.74 180.66 184.87 182.8 187 184.94 C188.46 186.4 189.91 187.86 191.37 189.32 C194.92 192.88 198.46 196.44 202 200 C206.84 195.97 211.38 191.74 215.79 187.25 C216.42 186.6 217.06 185.96 217.72 185.29 C219.1 183.9 220.47 182.5 221.84 181.11 C224.77 178.14 227.71 175.17 230.65 172.21 C236.11 166.71 241.57 161.2 247 155.67 C250.8 151.82 254.61 147.97 258.43 144.14 C259.87 142.68 261.31 141.22 262.75 139.75 C279.73 122.42 279.73 122.42 290.78 121.37 C292.35 121.36 293.93 121.38 295.5 121.44 C296.74 121.47 296.74 121.47 298.01 121.49 C316.87 122.25 328.15 138.01 340.63 150.54 C342.12 152.02 343.61 153.51 345.1 155 C348.98 158.89 352.86 162.78 356.75 166.68 C360.72 170.66 364.7 174.64 368.67 178.62 C376.45 186.41 384.23 194.21 392 202 C397.3 197.57 402.24 192.9 407.1 187.99 C407.88 187.21 408.66 186.44 409.46 185.63 C411.14 183.95 412.82 182.26 414.5 180.58 C417.16 177.91 419.82 175.24 422.48 172.57 C428.62 166.42 434.75 160.27 440.87 154.12 C446.94 148.03 453.01 141.94 459.09 135.86 C461.7 133.24 464.31 130.61 466.92 127.99 C468.54 126.37 470.15 124.75 471.77 123.14 C472.48 122.41 473.2 121.69 473.94 120.94 C477.16 117.72 480.41 114.6 483.87 111.63 C488.95 107.25 493.63 102.47 498.36 97.71 C499.37 96.69 500.39 95.67 501.4 94.65 C503.58 92.46 505.75 90.28 507.92 88.09 C511.37 84.62 514.82 81.16 518.27 77.7 C528.08 67.86 537.88 58.01 547.67 48.16 C553.09 42.7 558.52 37.25 563.95 31.81 C567.37 28.38 570.78 24.95 574.19 21.5 C576.33 19.35 578.47 17.21 580.62 15.06 C582.06 13.61 583.5 12.16 584.93 10.71 C598.67 -2.99 613.05 -13.47 633.07 -13.5 C641.93 -13.27 649.3 -10.21 655.5 -3.75 C666.72 11.52 661.41 31.1 658.77 48.42 C658.42 50.77 658.07 53.12 657.72 55.46 C656.87 61.18 656.01 66.89 655.15 72.61 C654.13 79.37 653.12 86.13 652.11 92.9 C650.28 105.18 648.43 117.46 646.58 129.74 C644.78 141.74 642.98 153.74 641.18 165.74 C641.07 166.48 640.96 167.22 640.84 167.99 C640.28 171.73 639.72 175.48 639.16 179.23 C638.04 186.71 636.92 194.19 635.8 201.67 C635.69 202.41 635.58 203.14 635.47 203.9 C633.8 215.03 632.13 226.16 630.46 237.29 C630.35 238.02 630.24 238.74 630.13 239.49 C629.69 242.39 629.26 245.3 628.82 248.2 C624.68 275.77 620.56 303.35 616.46 330.93 C615.67 336.28 614.87 341.63 614.08 346.99 C613.89 348.26 613.89 348.26 613.7 349.55 C613.21 352.85 612.72 356.16 612.22 359.46 C610.97 367.87 609.72 376.28 608.48 384.69 C607.45 391.61 606.42 398.53 605.39 405.45 C605.03 407.88 604.67 410.31 604.31 412.74 C602.74 423.41 601.11 434.04 598.96 444.61 C598.81 445.36 598.66 446.11 598.51 446.89 C596 458.65 589.46 467.63 581 476 C580.41 476.62 579.82 477.25 579.21 477.89 C571.47 485.46 558.88 492.07 548 493 C547.2 493.07 546.41 493.14 545.59 493.21 C534.73 493.66 526.94 490.24 519 483 C514.43 478.68 510.06 474.25 505.95 469.49 C501.47 464.37 496.86 459.37 492.24 454.38 C491.77 453.87 491.29 453.36 490.81 452.83 C481.47 442.76 471.99 432.82 462.45 422.93 C456.41 416.66 450.41 410.35 444.52 403.92 C417.13 371.43 417.13 371.43 379.88 355.22 C370.93 354.85 362.11 355.89 353.28 357.28 C346.24 358.34 339.34 358.09 332.25 357.77 C328.81 357.63 325.38 357.59 321.94 357.55 C321.26 357.54 320.59 357.53 319.89 357.51 C314.77 357.44 309.64 357.42 304.51 357.41 C301.37 357.39 298.23 357.38 295.09 357.36 C293.92 357.35 293.92 357.35 292.72 357.35 C282.21 357.28 271.83 356.74 261.36 355.82 C223.41 351.28 223.41 351.28 189.46 365.12 C178.15 374.76 168.6 386.28 160.01 398.37 C154.91 405.04 149.1 411.06 143.17 417 C142.42 417.76 141.67 418.52 140.9 419.29 C138.45 421.77 135.99 424.24 133.54 426.7 C132.27 427.98 132.27 427.98 130.98 429.27 C126.52 433.75 122.05 438.23 117.59 442.71 C112.98 447.32 108.39 451.95 103.8 456.58 C100.26 460.14 96.71 463.7 93.16 467.26 C91.46 468.96 89.77 470.67 88.08 472.38 C85.71 474.76 83.34 477.14 80.96 479.51 C79.92 480.57 79.92 480.57 78.87 481.64 C70.36 490.06 62.48 492.31 50.7 492.31 C38.5 492.09 29.64 487.22 20 480 C19.27 479.47 18.54 478.93 17.79 478.38 C0.71 464.79 -3.43 443.67 -5.89 423.17 C-6.11 421.21 -6.31 419.25 -6.51 417.29 C-6.87 413.92 -7.36 410.58 -7.88 407.24 C-9.09 399.46 -10.24 391.68 -11.4 383.9 C-11.63 382.33 -11.87 380.76 -12.1 379.19 C-12.6 375.83 -13.1 372.47 -13.6 369.11 C-14.38 363.8 -15.18 358.48 -15.97 353.16 C-16.1 352.26 -16.23 351.36 -16.37 350.43 C-16.65 348.59 -16.92 346.75 -17.19 344.91 C-19.03 332.55 -20.87 320.19 -22.71 307.83 C-23.95 299.46 -25.19 291.09 -26.44 282.73 C-27.09 278.31 -27.75 273.89 -28.4 269.48 C-29.02 265.33 -29.64 261.17 -30.26 257.02 C-30.48 255.51 -30.71 253.99 -30.93 252.47 C-31.99 245.3 -33.07 238.15 -34.59 231.06 C-35.42 226.89 -35.78 222.66 -36.21 218.43 C-36.61 214.76 -37.14 211.18 -37.92 207.57 C-39.2 201.26 -39.99 194.91 -40.8 188.53 C-42.24 177.45 -43.8 166.39 -45.47 155.34 C-45.58 154.63 -45.69 153.91 -45.8 153.18 C-46.36 149.47 -46.93 145.77 -47.5 142.06 C-48.22 137.31 -48.95 132.55 -49.67 127.79 C-49.92 126.14 -50.16 124.49 -50.41 122.84 C-50.54 122.02 -50.66 121.2 -50.79 120.35 C-52.46 109.33 -54.13 98.31 -55.82 87.29 C-56.97 79.77 -58.11 72.26 -59.24 64.74 C-59.84 60.79 -60.44 56.84 -61.05 52.89 C-61.62 49.19 -62.18 45.49 -62.73 41.79 C-63.03 39.81 -63.34 37.84 -63.65 35.86 C-67.62 8.95 -67.62 8.95 -60.3 -1.4 C-55.42 -7.32 -50.62 -10.74 -43.25 -12.75 C-26.69 -14.02 -13.06 -10.53 0 0 Z " fill="#FEFEFE" transform="translate(471,345)"/>
<path d="M0 0 C4.92 4.4 9.77 8.86 14.56 13.4 C15.39 14.18 16.21 14.96 17.06 15.77 C21.84 20.42 26.11 25.34 30.27 30.55 C31.76 32.41 33.29 34.23 34.86 36.03 C66.16 71.99 86.61 119.63 94.87 166.27 C95.02 167.1 95.17 167.93 95.32 168.78 C98.21 186.43 98.86 203.98 98.85 221.83 C98.86 224.21 98.87 226.59 98.87 228.98 C98.89 235.39 98.9 241.79 98.9 248.2 C98.9 252.22 98.9 256.23 98.91 260.24 C98.93 273.55 98.93 286.86 98.93 300.17 C98.93 301.24 98.93 301.24 98.93 302.33 C98.93 303.05 98.93 303.76 98.93 304.5 C98.93 316.09 98.95 327.69 98.98 339.28 C99.01 351.24 99.02 363.2 99.02 375.16 C99.02 381.85 99.02 388.54 99.05 395.24 C99.07 401.53 99.07 407.82 99.05 414.11 C99.05 416.4 99.05 418.7 99.07 421 C99.18 444.05 95.36 463.18 78.56 480.4 C63.21 494.03 45.13 499.81 24.83 498.61 C9.06 497.14 -3.29 490.5 -14.44 479.4 C-15.08 478.78 -15.71 478.17 -16.37 477.54 C-23.25 470.38 -27.51 460.79 -30.44 451.4 C-30.89 451.7 -31.34 452.01 -31.81 452.32 C-33.34 453.35 -34.87 454.37 -36.4 455.38 C-37.98 456.43 -39.57 457.49 -41.15 458.55 C-85.17 488.28 -135.02 505.94 -188.38 505.71 C-189.27 505.71 -190.16 505.71 -191.09 505.71 C-206.05 505.65 -220.66 504.92 -235.44 502.4 C-236.92 502.15 -236.92 502.15 -238.43 501.9 C-268.1 496.69 -295.86 486.41 -322.44 472.4 C-323.13 472.04 -323.83 471.68 -324.55 471.3 C-341.39 462.51 -357.03 451.79 -371.44 439.4 C-372.53 438.49 -373.62 437.58 -374.72 436.68 C-386.11 427.16 -397.02 416.9 -406.44 405.4 C-406.86 404.89 -407.28 404.39 -407.71 403.87 C-458.35 342.66 -480.94 267.63 -474.93 188.65 C-474.35 182.52 -473.49 176.46 -472.44 170.4 C-472.27 169.4 -472.09 168.4 -471.92 167.38 C-462.01 111.74 -434.53 56.68 -393.44 17.4 C-390.91 14.89 -388.41 12.37 -385.93 9.82 C-379.77 3.53 -373.4 -2.19 -366.44 -7.6 C-365.59 -8.27 -365.59 -8.27 -364.73 -8.95 C-333.15 -33.82 -296.41 -51.82 -257.44 -61.6 C-256.49 -61.84 -255.54 -62.08 -254.56 -62.33 C-166.38 -83.98 -68 -60.3 0 0 Z M-221.44 65.4 C-222.16 65.57 -222.89 65.73 -223.63 65.9 C-263.95 75.33 -299.32 101.32 -321.16 136.3 C-334.74 158.62 -343.62 184.09 -344.44 210.4 C-344.48 211.53 -344.52 212.66 -344.56 213.82 C-345.34 257.51 -327.99 297.74 -297.91 328.98 C-270.87 356.21 -232.88 373.24 -194.44 374.4 C-193.44 374.44 -192.45 374.48 -191.43 374.52 C-152.35 375.35 -113.2 361.14 -84.6 334.41 C-82.75 332.69 -80.85 331.1 -78.88 329.52 C-51.14 305.8 -35.98 265.56 -32.9 230.22 C-32.73 227.94 -32.58 225.67 -32.44 223.4 C-32.38 222.41 -32.32 221.42 -32.25 220.41 C-32.18 217.71 -32.27 215.09 -32.44 212.4 C-32.48 211.72 -32.52 211.04 -32.56 210.34 C-35.11 171.78 -49.6 137.18 -76.44 109.4 C-77.3 108.47 -78.16 107.55 -79.05 106.59 C-99.03 85.7 -126.45 71.83 -154.44 65.4 C-155.11 65.24 -155.78 65.07 -156.48 64.9 C-176.96 60.07 -201.03 60.44 -221.44 65.4 Z " fill="#00ABFF" transform="translate(3538.43798828125,396.60107421875)"/>
<path d="M0 0 C1.73 -0 3.46 -0.01 5.19 -0.01 C9.92 -0.02 14.64 -0.01 19.37 -0.01 C24.47 -0 29.58 -0.01 34.69 -0.02 C44.68 -0.02 54.68 -0.02 64.67 -0.02 C72.79 -0.01 80.92 -0.01 89.04 -0.01 C90.2 -0.01 91.36 -0.01 92.55 -0.01 C94.9 -0.02 97.25 -0.02 99.6 -0.02 C121.64 -0.02 143.68 -0.02 165.71 -0 C184.61 0 203.51 0 222.4 -0.01 C244.36 -0.02 266.32 -0.02 288.29 -0.02 C290.63 -0.01 292.97 -0.01 295.31 -0.01 C296.47 -0.01 297.62 -0.01 298.81 -0.01 C306.92 -0.01 315.03 -0.01 323.14 -0.02 C333.03 -0.02 342.92 -0.02 352.81 -0.01 C357.85 -0.01 362.89 -0 367.93 -0.01 C372.56 -0.02 377.18 -0.01 381.8 -0 C383.46 -0 385.13 -0 386.8 -0.01 C408.64 -0.07 429.01 4.42 445.45 19.91 C459.33 34.99 464.41 52.76 463.99 72.88 C463.23 88.03 456.4 101.46 446.08 112.4 C445.49 113.03 444.9 113.66 444.29 114.31 C433.76 125.41 422.83 136.14 411.99 146.94 C408.65 150.27 405.32 153.6 401.99 156.92 C393.56 165.35 385.11 173.77 376.67 182.19 C367.53 191.31 358.39 200.43 349.25 209.56 C345.3 213.5 341.35 217.45 337.4 221.39 C334.94 223.84 332.48 226.29 330.02 228.75 C328.89 229.88 327.75 231.01 326.62 232.14 C319.69 239.01 319.69 239.01 313.13 246.23 C308.26 251.93 302.86 257.13 297.54 262.42 C296.33 263.63 295.12 264.84 293.91 266.05 C291.31 268.64 288.72 271.23 286.12 273.82 C282.01 277.92 277.9 282.02 273.79 286.13 C264.32 295.58 254.86 305.03 245.39 314.47 C236.7 323.14 228.02 331.8 219.34 340.47 C215.27 344.54 211.18 348.61 207.1 352.68 C204.55 355.22 202.01 357.76 199.47 360.3 C198.29 361.47 197.12 362.64 195.95 363.81 C194.33 365.42 192.72 367.03 191.11 368.64 C190.21 369.53 189.32 370.43 188.39 371.36 C186.31 373.47 184.37 375.68 182.44 377.93 C177.83 383.23 172.84 388.15 167.86 393.1 C166.84 394.12 165.82 395.14 164.8 396.16 C162.14 398.82 159.47 401.47 156.81 404.13 C154.08 406.85 151.35 409.57 148.62 412.29 C143.29 417.62 137.95 422.94 132.61 428.25 C133.2 428.25 133.79 428.26 134.39 428.26 C169.32 428.32 204.26 428.39 239.19 428.48 C243.39 428.49 247.59 428.51 251.79 428.52 C252.62 428.52 253.46 428.52 254.32 428.52 C267.84 428.56 281.35 428.58 294.86 428.6 C308.74 428.63 322.63 428.66 336.51 428.7 C345.06 428.73 353.62 428.75 362.17 428.75 C368.05 428.76 373.93 428.77 379.81 428.8 C383.19 428.81 386.58 428.82 389.96 428.82 C416.1 428.81 437.33 430.81 457.3 449.44 C470.57 463.31 476.22 480.78 475.88 499.67 C475.16 516.72 467.46 532.1 455.61 544.25 C439.41 558.48 421.03 561.72 400.26 561.64 C398.43 561.65 396.59 561.65 394.75 561.66 C389.74 561.67 384.73 561.67 379.71 561.66 C374.3 561.66 368.88 561.67 363.46 561.68 C352.85 561.7 342.25 561.7 331.65 561.69 C323.02 561.69 314.4 561.69 305.78 561.69 C303.94 561.7 303.94 561.7 302.06 561.7 C299.56 561.7 297.06 561.7 294.57 561.7 C271.17 561.71 247.78 561.71 224.39 561.7 C203 561.69 181.62 561.7 160.24 561.72 C138.26 561.75 116.28 561.76 94.31 561.75 C81.98 561.75 69.65 561.75 57.32 561.77 C46.82 561.78 36.32 561.78 25.83 561.77 C20.48 561.76 15.13 561.76 9.77 561.77 C4.87 561.79 -0.04 561.78 -4.95 561.76 C-6.71 561.76 -8.48 561.76 -10.25 561.77 C-29.59 561.88 -46.4 558.2 -61.39 545.25 C-62.05 544.7 -62.7 544.16 -63.38 543.59 C-76.74 531.44 -84.24 513.76 -85.65 496.01 C-86.24 478.7 -80.96 464 -69.17 451.3 C-59.42 440.92 -49.18 430.98 -39.08 420.94 C-35.28 417.17 -31.48 413.39 -27.69 409.61 C-26.19 408.12 -24.69 406.63 -23.19 405.15 C-22.27 404.23 -21.35 403.31 -20.4 402.36 C-19.6 401.57 -18.8 400.77 -17.97 399.95 C-15.91 397.8 -13.95 395.62 -12.01 393.37 C-8.64 389.5 -5.11 385.84 -1.46 382.23 C-0.48 381.25 -0.48 381.25 0.52 380.26 C1.92 378.86 3.32 377.46 4.73 376.06 C6.96 373.84 9.19 371.62 11.42 369.4 C16.95 363.88 22.48 358.37 28.02 352.86 C32.7 348.19 37.39 343.52 42.07 338.85 C44.25 336.67 46.44 334.5 48.63 332.32 C49.98 330.97 51.33 329.63 52.68 328.28 C53.28 327.68 53.88 327.09 54.5 326.48 C57.49 323.49 60.35 320.45 63.11 317.25 C66.43 313.41 69.93 309.8 73.54 306.23 C74.19 305.58 74.84 304.93 75.52 304.26 C76.92 302.86 78.32 301.46 79.73 300.06 C81.96 297.84 84.19 295.62 86.42 293.4 C91.95 287.88 97.48 282.37 103.02 276.86 C107.7 272.19 112.39 267.52 117.07 262.85 C119.25 260.67 121.44 258.5 123.63 256.32 C124.98 254.97 126.33 253.63 127.68 252.28 C128.28 251.68 128.88 251.09 129.5 250.48 C133.13 246.85 136.52 243.09 139.87 239.22 C142.61 236.13 145.52 233.23 148.44 230.32 C149.09 229.68 149.73 229.04 150.39 228.38 C151.78 227 153.16 225.62 154.54 224.24 C156.74 222.06 158.94 219.87 161.13 217.68 C166.58 212.25 172.03 206.82 177.48 201.4 C182.1 196.8 186.71 192.2 191.32 187.6 C193.47 185.45 195.63 183.31 197.78 181.17 C199.11 179.84 200.45 178.51 201.78 177.19 C202.66 176.31 202.66 176.31 203.57 175.41 C206.36 172.61 209.04 169.78 211.6 166.76 C217.53 159.9 224.12 153.64 230.55 147.25 C231.91 145.89 233.28 144.53 234.64 143.17 C237.96 139.86 241.29 136.56 244.61 133.25 C244.05 133.25 243.5 133.25 242.92 133.25 C209.85 133.22 176.78 133.16 143.72 133.08 C139.74 133.07 135.76 133.06 131.79 133.05 C131 133.04 130.2 133.04 129.39 133.04 C116.59 133.01 103.8 132.99 91.01 132.98 C77.87 132.97 64.73 132.94 51.58 132.9 C43.49 132.87 35.39 132.86 27.29 132.86 C21.06 132.86 14.84 132.84 8.61 132.81 C6.07 132.8 3.52 132.8 0.98 132.81 C-21.58 132.85 -40.93 130.59 -57.7 114.04 C-72.05 99.19 -77.97 82.44 -77.88 61.97 C-77.4 44.87 -70.76 30.88 -59.14 18.38 C-42.13 2.46 -22.26 -0.07 0 0 Z " fill="#00B1FF" transform="translate(2536.389419555664,333.74603271484375)"/>
<path d="M0 0 C11.08 10.5 19.24 24.58 20.21 40.12 C20.25 43.13 20.28 46.14 20.3 49.15 C20.33 50.69 20.33 50.69 20.36 52.27 C20.41 62.48 18.09 71.43 13.48 80.52 C12.97 81.54 12.97 81.54 12.44 82.58 C4.25 98.02 -10.19 108.07 -26.46 113.75 C-35.36 116.29 -43.87 116.91 -53.1 117.17 C-99.09 118.59 -141.26 138.45 -173.11 171.43 C-197.73 197.72 -214.13 233.47 -217.07 269.33 C-217.16 270.33 -217.24 271.32 -217.33 272.35 C-218.13 282.67 -218.24 292.96 -218.22 303.31 C-218.23 305.38 -218.23 307.44 -218.24 309.5 C-218.25 313.89 -218.26 318.28 -218.26 322.66 C-218.26 329.61 -218.28 336.56 -218.3 343.51 C-218.35 360.75 -218.38 377.99 -218.4 395.23 C-218.42 408.67 -218.44 422.12 -218.48 435.56 C-218.5 442.46 -218.51 449.36 -218.51 456.26 C-218.51 460.55 -218.53 464.84 -218.54 469.14 C-218.55 471.12 -218.55 473.1 -218.55 475.08 C-218.5 494.57 -221.65 511.69 -235.41 526.32 C-248.06 538.92 -264.33 545.59 -282.08 545.9 C-300.15 545.83 -317.87 539.31 -330.99 526.73 C-347.65 509.91 -350.41 490.62 -350.33 468.02 C-350.33 465.86 -350.33 463.69 -350.34 461.53 C-350.35 455.68 -350.34 449.82 -350.32 443.97 C-350.31 437.82 -350.32 431.66 -350.32 425.51 C-350.32 415.17 -350.31 404.83 -350.29 394.5 C-350.27 382.59 -350.26 370.69 -350.27 358.78 C-350.28 347.28 -350.27 335.78 -350.26 324.29 C-350.26 319.42 -350.25 314.55 -350.26 309.68 C-350.26 303.92 -350.25 298.16 -350.23 292.41 C-350.23 290.31 -350.23 288.22 -350.23 286.12 C-350.25 267.81 -349.06 249.74 -345.77 231.71 C-345.55 230.54 -345.34 229.36 -345.12 228.15 C-342.88 216.35 -339.69 204.93 -335.95 193.52 C-335.67 192.63 -335.38 191.74 -335.08 190.82 C-320.18 145.05 -293.07 104.61 -259.33 70.65 C-258.47 69.78 -257.61 68.91 -256.73 68.02 C-250.78 62.1 -244.53 56.73 -237.95 51.52 C-237.04 50.79 -237.04 50.79 -236.11 50.04 C-184.47 8.79 -60.92 -51.09 0 0 Z " fill="#00B7FF" transform="translate(4096.953125,349.4765625)"/>
<path d="M0 0 C0.77 0.39 1.54 0.77 2.34 1.17 C17.35 9.25 27.31 22.97 32.44 39 C34.31 45.58 35.15 51.82 35.13 58.65 C35.13 59.4 35.14 60.16 35.14 60.93 C35.14 63.46 35.14 65.99 35.14 68.52 C35.14 70.35 35.15 72.18 35.15 74.01 C35.16 79.05 35.16 84.08 35.16 89.11 C35.16 94.54 35.17 99.97 35.18 105.4 C35.19 117.27 35.2 129.14 35.2 141.01 C35.2 148.42 35.21 155.83 35.21 163.25 C35.22 183.77 35.23 204.3 35.24 224.83 C35.24 226.8 35.24 226.8 35.24 228.81 C35.24 230.13 35.24 231.45 35.24 232.8 C35.24 235.47 35.24 238.14 35.24 240.81 C35.24 241.8 35.24 241.8 35.24 242.81 C35.24 263.59 35.26 284.37 35.28 305.15 C35.31 328.5 35.32 351.85 35.32 375.21 C35.32 387.57 35.33 399.93 35.35 412.29 C35.36 422.82 35.37 433.35 35.36 443.87 C35.36 449.24 35.36 454.61 35.37 459.98 C35.38 464.9 35.38 469.82 35.37 474.74 C35.37 476.52 35.37 478.29 35.38 480.07 C35.44 493.34 34.74 506.26 28.38 518.25 C28.03 518.92 27.68 519.59 27.33 520.28 C24.06 526.35 19.98 531.23 15 536 C14.33 536.71 13.65 537.41 12.96 538.14 C1.62 549.3 -14.71 554.17 -30.31 554.44 C-48.85 554.27 -66.16 547.25 -79.27 534.05 C-94.74 517.39 -97.31 497.8 -97.25 475.93 C-97.26 474.12 -97.26 472.3 -97.26 470.48 C-97.27 465.52 -97.27 460.55 -97.26 455.58 C-97.26 450.22 -97.26 444.85 -97.27 439.49 C-97.28 428.98 -97.28 418.48 -97.27 407.98 C-97.27 399.44 -97.27 390.91 -97.27 382.37 C-97.27 380.54 -97.27 380.54 -97.27 378.68 C-97.27 376.21 -97.27 373.74 -97.27 371.27 C-97.28 348.12 -97.27 324.96 -97.26 301.81 C-97.25 281.95 -97.25 262.09 -97.26 242.23 C-97.27 219.16 -97.28 196.09 -97.27 173.02 C-97.27 170.55 -97.27 168.09 -97.27 165.63 C-97.27 164.42 -97.27 163.21 -97.27 161.96 C-97.26 153.44 -97.27 144.91 -97.27 136.39 C-97.28 126 -97.28 115.6 -97.27 105.21 C-97.26 99.91 -97.26 94.61 -97.27 89.31 C-97.27 84.46 -97.27 79.6 -97.26 74.75 C-97.26 72.99 -97.26 71.24 -97.26 69.49 C-97.32 47.28 -92.89 28.93 -77.35 12.2 C-57.14 -6.68 -25 -13.81 0 0 Z " fill="#00ACFF" transform="translate(2317,341)"/>
<path d="M0 0 C1.93 1.32 1.93 1.32 3.81 3.06 C4.5 3.7 5.19 4.34 5.9 4.99 C6.6 5.66 7.29 6.32 8 7 C8.95 7.91 8.95 7.91 9.91 8.83 C11.88 10.74 13.82 12.68 15.76 14.62 C16.49 15.34 17.22 16.07 17.97 16.82 C20.36 19.19 22.74 21.57 25.12 23.95 C26.78 25.61 28.45 27.27 30.11 28.94 C33.59 32.41 37.06 35.88 40.54 39.35 C44.99 43.81 49.45 48.25 53.91 52.7 C57.35 56.12 60.78 59.55 64.21 62.98 C65.85 64.62 67.5 66.26 69.14 67.9 C71.44 70.19 73.73 72.48 76.02 74.77 C76.7 75.45 77.38 76.12 78.08 76.82 C78.7 77.45 79.32 78.07 79.97 78.72 C80.51 79.26 81.05 79.8 81.6 80.36 C84.69 83.99 85.45 87.17 85.32 91.97 C84.78 95.4 83.26 97.44 81 100 C76.71 102.31 72.49 102.3 67.72 102.31 C66.9 102.31 66.08 102.32 65.24 102.33 C62.54 102.36 59.83 102.36 57.13 102.37 C55.24 102.38 53.36 102.39 51.48 102.4 C47.53 102.41 43.58 102.42 39.64 102.43 C34.58 102.43 29.53 102.47 24.48 102.51 C20.59 102.54 16.7 102.55 12.81 102.55 C10.95 102.56 9.09 102.57 7.22 102.59 C4.62 102.62 2.01 102.61 -0.6 102.6 C-1.36 102.61 -2.13 102.63 -2.91 102.64 C-8.73 102.57 -11.08 101 -15 97 C-16.22 94.57 -16.16 92.94 -16.21 90.22 C-16.23 89.21 -16.25 88.21 -16.27 87.18 C-16.28 86.09 -16.3 84.99 -16.32 83.86 C-16.34 82.73 -16.36 81.59 -16.38 80.42 C-16.45 76.72 -16.51 73.02 -16.56 69.31 C-16.58 68.06 -16.6 66.81 -16.62 65.53 C-16.74 58.11 -16.85 50.7 -16.95 43.29 C-17 40.34 -17.04 37.4 -17.09 34.46 C-17.16 30.12 -17.21 25.78 -17.25 21.44 C-17.27 20.22 -17.29 19.01 -17.31 17.76 C-17.34 12.11 -17.33 7.82 -14 3 C-9.88 -0.64 -5.24 -1.11 0 0 Z " fill="#00B2FF" transform="translate(2307,73)"/>
<path d="M0 0 C0.81 -0.01 1.62 -0.01 2.46 -0.02 C5.13 -0.04 7.8 -0.04 10.47 -0.05 C12.33 -0.05 14.19 -0.06 16.05 -0.07 C19.95 -0.08 23.85 -0.08 27.75 -0.08 C32.74 -0.08 37.74 -0.11 42.73 -0.14 C46.57 -0.16 50.41 -0.17 54.26 -0.17 C56.1 -0.17 57.94 -0.18 59.78 -0.19 C62.35 -0.21 64.93 -0.21 67.5 -0.2 C68.26 -0.21 69.02 -0.22 69.79 -0.23 C74.94 -0.17 77.91 0.96 81.82 4.29 C84.65 7.89 84.12 12.36 84.12 16.74 C84.13 17.59 84.14 18.45 84.15 19.32 C84.17 22.13 84.18 24.94 84.19 27.76 C84.2 29.71 84.21 31.67 84.22 33.62 C84.23 37.72 84.24 41.82 84.24 45.92 C84.25 51.17 84.29 56.42 84.33 61.67 C84.36 65.7 84.37 69.74 84.37 73.78 C84.37 75.72 84.39 77.65 84.41 79.59 C84.43 82.29 84.43 85 84.42 87.71 C84.43 88.51 84.45 89.31 84.46 90.13 C84.41 94.22 84.01 96.05 81.4 99.26 C77.62 102.23 75.1 102.84 70.35 102.74 C67.34 102.21 66.22 101.32 64 99.24 C62.97 98.29 62.97 98.29 61.91 97.31 C61.22 96.64 60.53 95.98 59.82 95.29 C59.18 94.68 58.54 94.07 57.89 93.44 C55.89 91.49 53.92 89.53 51.95 87.55 C50.84 86.44 50.84 86.44 49.7 85.31 C47.28 82.89 44.86 80.47 42.45 78.05 C40.76 76.36 39.07 74.67 37.38 72.98 C33.85 69.46 30.32 65.93 26.8 62.4 C22.27 57.87 17.74 53.34 13.21 48.82 C9.73 45.34 6.25 41.86 2.77 38.37 C1.1 36.7 -0.58 35.03 -2.25 33.36 C-4.57 31.04 -6.9 28.71 -9.22 26.38 C-9.91 25.69 -10.61 25 -11.32 24.28 C-11.95 23.65 -12.58 23.02 -13.23 22.37 C-14.06 21.54 -14.06 21.54 -14.9 20.7 C-17.71 17.62 -17.52 14.61 -17.46 10.61 C-17.03 7 -15.59 4.96 -13.18 2.29 C-8.91 0 -4.74 -0.01 0 0 Z " fill="#00CFFF" transform="translate(2192.183349609375,187.70947265625)"/>
<path d="M0 0 C9.35 6.36 15.9 14.8 19.1 25.68 C19.87 29.94 20.11 34.06 20.16 38.38 C20.17 39.5 20.17 39.5 20.19 40.64 C20.02 51.27 14.65 61.15 7.53 68.88 C-0.51 76.44 -10.64 80.52 -21.59 80.38 C-22.35 80.37 -23.1 80.36 -23.88 80.35 C-36.24 80.11 -44.88 76.51 -54.03 67.94 C-63.19 58.29 -66.87 47.44 -66.59 34.31 C-65.41 22.22 -60.18 12.4 -51.28 4.25 C-36.87 -7.5 -16.3 -10.06 0 0 Z " fill="#01C1FF" transform="translate(558.2783203125,592.87060546875)"/>
<path d="M0 0 C6.36 2.89 10.75 7.9 13.45 14.29 C15.73 21.4 14.9 27.2 11.98 33.95 C8.71 39.55 3.72 43.38 -2.43 45.35 C-11.58 46.26 -18.39 44.81 -25.59 39.03 C-29.66 35.31 -31.15 32.5 -31.84 27.14 C-32.17 19.28 -31.45 12.63 -26.43 6.35 C-18.5 -0.33 -10.31 -2.76 0 0 Z " fill="#03C503" transform="translate(977.42578125,536.6484375)"/>
<path d="M0 0 C5.31 3.07 8.62 6.83 10.89 12.6 C12.5 19.13 12.8 26.39 9.31 32.31 C4.71 38.45 -1.1 42.97 -8.88 44.17 C-15.68 44.56 -21.03 42.78 -26.56 38.81 C-31.65 33.6 -34.6 28.31 -34.88 21 C-34.69 14.02 -33.09 9.12 -28.25 4 C-20.12 -3.38 -10.1 -4.74 0 0 Z " fill="#E90164" transform="translate(1035.5625,592.1875)"/>
<path d="M0 0 C4.47 3.42 6.97 7.68 8.98 12.87 C9.9 20.41 9.1 26.29 5.23 32.93 C0.68 38.2 -4.08 41.59 -11.15 42.11 C-20.13 42.36 -26.14 39.99 -32.77 33.93 C-37.3 28.5 -37.43 23.43 -37.21 16.45 C-36.35 9.69 -33.83 4.17 -28.39 -0.07 C-19.35 -5.6 -9.01 -5.44 0 0 Z " fill="#FFA802" transform="translate(982.765625,647.06640625)"/>
<path d="M0 0 C5.91 3.52 10.52 8.96 12.62 15.5 C13.58 22.83 12.72 29.27 8.62 35.5 C4.13 40.94 -1.48 43.42 -8.38 44.5 C-15.53 44.86 -20.88 43.07 -26.38 38.5 C-30.4 34.6 -33.08 30.48 -33.64 24.82 C-33.6 16.81 -32.65 10.83 -27.38 4.5 C-19.49 -2.16 -9.71 -4.18 0 0 Z " fill="#7F07DD" transform="translate(925.375,591.5)"/>
<path d="M0 0 C5.11 1.79 8.64 6.08 12.34 9.88 C13.65 11.14 13.65 11.14 14.98 12.41 C21.89 19.38 21.89 19.38 22.07 24.21 C21.37 27.65 21.07 29.09 18.65 31.51 C18.02 32.15 17.39 32.8 16.73 33.46 C15.55 34.63 15.55 34.63 14.34 35.82 C13.3 36.94 12.26 38.06 11.23 39.18 C10.1 40.37 8.97 41.57 7.84 42.76 C7.31 43.34 6.77 43.92 6.22 44.52 C3.34 47.47 1.74 48.71 -2.36 49.81 C-6.61 49.82 -8.44 48.51 -11.66 45.82 C-12.96 43.22 -12.79 41.31 -12.79 38.4 C-12.8 37.29 -12.8 36.19 -12.8 35.06 C-12.79 33.89 -12.79 32.72 -12.79 31.51 C-12.78 29.74 -12.78 29.74 -12.77 27.93 C-12.62 5.95 -12.62 5.95 -9.74 2.56 C-6.47 -0.18 -4.29 -0.61 0 0 Z " fill="#01ABFF" transform="translate(808.66015625,536.17919921875)"/>
<path d="M0 0 C2.81 2.14 3.87 3.38 4.61 6.86 C4.77 10.91 4.92 14.95 5 19 C5.03 19.95 5.05 20.89 5.08 21.87 C5.16 24.95 5.21 28.04 5.25 31.12 C5.27 32.12 5.29 33.12 5.32 34.14 C5.35 42.99 5.35 42.99 2 47 C-0.43 48.91 -1.92 49 -5.02 49.13 C-11.03 48.18 -14.9 42.75 -18.88 38.56 C-19.74 37.68 -20.61 36.79 -21.5 35.88 C-28.78 28.39 -28.78 28.39 -29.5 23.88 C-28.77 18.24 -25.94 15.91 -22 12 C-20.99 10.95 -19.98 9.91 -18.97 8.86 C-17.9 7.76 -16.82 6.66 -15.75 5.56 C-15.23 5.03 -14.71 4.5 -14.18 3.95 C-9.39 -0.85 -6.63 -1.51 0 0 Z " fill="#01ABFF" transform="translate(735,537)"/>
<path d="M0 0 C6.6 1.1 11.35 2.65 15.59 8 C20.14 15.16 20.88 21.56 20 30 C17.44 36.94 11.9 41.78 5.31 44.88 C2 46 2 46 -1 45 C-0.67 30.15 -0.34 15.3 0 0 Z " fill="#F1019B" transform="translate(1027,590)"/>
<path d="M0 0 C0.91 -0.01 1.82 -0.02 2.76 -0.03 C4.24 -0.03 4.24 -0.03 5.75 -0.03 C6.76 -0.03 7.77 -0.03 8.81 -0.04 C10.96 -0.04 13.1 -0.05 15.24 -0.04 C18.52 -0.04 21.8 -0.06 25.08 -0.09 C27.16 -0.09 29.24 -0.09 31.31 -0.09 C32.3 -0.1 33.28 -0.11 34.3 -0.12 C35.21 -0.11 36.12 -0.1 37.07 -0.1 C38.27 -0.1 38.27 -0.1 39.5 -0.1 C42.13 0.37 43.01 1.16 44.6 3.27 C45.02 6.58 45.03 8.52 43.36 11.44 C41.6 13.27 41.6 13.27 39.5 13.77 C38.3 13.76 38.3 13.76 37.07 13.76 C36.15 13.77 35.24 13.77 34.3 13.78 C33.31 13.76 32.33 13.75 31.31 13.74 C30.3 13.73 29.29 13.73 28.25 13.73 C26.11 13.73 23.97 13.71 21.83 13.69 C18.54 13.65 15.26 13.65 11.98 13.65 C9.9 13.64 7.83 13.62 5.75 13.61 C4.76 13.61 3.78 13.61 2.76 13.6 C1.85 13.59 0.94 13.58 0 13.57 C-0.8 13.56 -1.61 13.55 -2.44 13.54 C-4.4 13.27 -4.4 13.27 -6.4 11.27 C-6.67 9.18 -6.67 9.18 -6.65 6.77 C-6.66 5.98 -6.66 5.19 -6.67 4.37 C-6.13 0.13 -3.69 0.02 0 0 Z " fill="#01C2FF" transform="translate(783.402099609375,668.725341796875)"/>
<path d="M0 0 C0.91 -0.01 1.83 -0.02 2.77 -0.03 C3.75 -0.02 4.74 -0.02 5.75 -0.01 C7.27 -0.01 7.27 -0.01 8.82 -0.02 C10.96 -0.02 13.1 -0.02 15.24 -0 C18.52 0.01 21.8 -0 25.09 -0.02 C27.16 -0.02 29.24 -0.02 31.32 -0.01 C32.8 -0.02 32.8 -0.02 34.31 -0.03 C35.22 -0.02 36.13 -0.01 37.07 0 C37.87 0 38.67 0 39.5 0.01 C40.48 0.2 40.48 0.2 41.47 0.39 C43.93 4.08 43.86 6.02 43.47 10.39 C41.91 12.51 41.03 13.28 38.42 13.77 C37.24 13.77 37.24 13.77 36.04 13.78 C35.15 13.79 34.26 13.8 33.34 13.81 C32.39 13.8 31.43 13.79 30.44 13.79 C29.45 13.79 28.46 13.79 27.44 13.8 C25.36 13.8 23.27 13.79 21.18 13.78 C17.98 13.76 14.78 13.78 11.58 13.8 C9.55 13.8 7.53 13.79 5.5 13.79 C4.06 13.8 4.06 13.8 2.59 13.81 C1.26 13.79 1.26 13.79 -0.11 13.78 C-0.89 13.77 -1.68 13.77 -2.48 13.77 C-5.09 13.28 -5.97 12.51 -7.53 10.39 C-8.19 4.28 -8.19 4.28 -6.29 1.69 C-4.05 0.03 -2.78 0.01 0 0 Z " fill="#01C1FF" transform="translate(716.531494140625,668.61181640625)"/>
<path d="M0 0 C0 12.54 0 25.08 0 38 C-5.77 34.54 -9.21 30.56 -11 24 C-11.71 16.77 -11.21 10 -6.54 4.17 C-2.55 0 -2.55 0 0 0 Z " fill="#E30132" transform="translate(1012,594)"/>
<path d="M0 0 C3.92 1.96 4.62 2.44 6.69 5.94 C7.31 6.97 7.31 6.97 7.95 8.03 C10.94 13.64 10.65 19.81 10 26 C7.87 31.63 4.73 34.22 0 38 C0 25.46 0 12.92 0 0 Z " fill="#F901D2" transform="translate(1037,594)"/>
<path d="M0 0 C1.65 0 3.3 0 5 0 C5.03 6.39 5.04 12.78 5.05 19.17 C5.06 21.35 5.07 23.52 5.08 25.7 C5.09 28.82 5.09 31.94 5.1 35.06 C5.1 36.04 5.11 37.02 5.11 38.03 C5.11 38.93 5.11 39.83 5.11 40.76 C5.12 41.55 5.12 42.35 5.12 43.17 C5 45 5 45 4 46 C1.67 46.04 -0.67 46.04 -3 46 C-1.51 45.5 -1.51 45.5 0 45 C0 30.15 0 15.3 0 0 Z " fill="#ED0180" transform="translate(1022,590)"/>
<path d="M0 0 C0 14.19 0 28.38 0 43 C-1.65 42.67 -3.3 42.34 -5 42 C-5.33 28.8 -5.66 15.6 -6 2 C-2 0 -2 0 0 0 Z " fill="#E60149" transform="translate(1017,591)"/>
<path d="M0 0 C2.47 0.99 2.47 0.99 5 2 C5.1 7.5 5.17 13 5.22 18.5 C5.24 20.37 5.27 22.24 5.3 24.11 C5.35 26.8 5.37 29.49 5.39 32.18 C5.41 33.01 5.43 33.85 5.45 34.71 C5.46 40.54 5.46 40.54 2.98 43.05 C2.32 43.36 1.67 43.68 1 44 C0.34 43.67 -0.32 43.34 -1 43 C-0.67 28.81 -0.34 14.62 0 0 Z " fill="#F500B7" transform="translate(1032,591)"/>
<path d="M0 0 C0 8.91 0 17.82 0 27 C-4.8 22.2 -6.09 19.69 -6.25 13.06 C-6.16 9.04 -5.75 5.68 -4 2 C-1 0 -1 0 0 0 Z " fill="#DF0318" transform="translate(1007,600)"/>
<path d="M0 0 C5.35 7.13 5.93 13.22 5 22 C3.96 24.79 2.8 26.58 1 29 C0.67 29 0.34 29 0 29 C0 19.43 0 9.86 0 0 Z " fill="#FC04ED" transform="translate(1042,598)"/>
<path d="M0 0 C0.33 0 0.66 0 1 0 C1 10.89 1 21.78 1 33 C0.01 32.67 -0.98 32.34 -2 32 C-2 23.09 -2 14.18 -2 5 C-2.99 5.5 -2.99 5.5 -4 6 C-2.85 3.53 -1.95 1.95 0 0 Z " fill="#E10426" transform="translate(1008,596)"/>
<path d="M0 0 C0.33 0 0.66 0 1 0 C1 6.27 1 12.54 1 19 C-2.75 14.01 -2.59 11.02 -2 5 C-1 1.88 -1 1.88 0 0 Z " fill="#E0161C" transform="translate(1003,603)"/>
</svg>
